<svg version="1.2" baseProfile="tiny-ps" xmlns="http://www.w3.org/2000/svg" viewBox="0 0 47 144" width="47" height="144">
	<title>Mivi</title>
	<style>
		tspan { white-space:pre }
		.shp0 { fill: #00ff00 } 
	</style>
	<g id="Mivi">
		<path id="mivi-logo.b54ad5ef1fe59e25b9df245442e610be" fill-rule="evenodd" class="shp0" d="M22.07 142.95L30.48 132.31L46.2 132.31L46.2 143.03L22.07 142.95ZM46.2 49.76L0.69 67.98L0.63 56.12C10.88 52.01 21.09 47.94 31.35 43.88L24.41 41.11L24.38 41.12L17.55 38.39C11.92 36.13 6.28 33.88 0.63 31.63L0.63 31.6L0.69 19.76L0.69 19.73L39.2 35.17L39.17 35.19L46.04 37.94L46.2 49.76ZM0.63 86.74L0.63 76.02L46.2 76.02L46.2 86.74L0.63 86.74ZM0.63 11.69L0.63 0.97L46.2 0.97L46.2 11.69L0.63 11.69ZM20.33 119.03L0.63 94.78L15.83 94.78C22.42 102.89 28.87 110.88 35.47 119C28.93 126.98 22.42 135 15.92 143.03L0.76 143.03L20.33 119.03ZM22.07 94.78L46.2 94.78L46.2 105.51L30.59 105.51C27.76 101.92 24.92 98.35 22.07 94.78Z" />
	</g>
</svg>